<svg width="165" height="41" viewBox="0 0 165 41" fill="none" xmlns="http://www.w3.org/2000/svg">
<g clip-path="url(#clip0_104_12)">
<path d="M57.3408 20.8067V23.0199C56.6728 22.651 56.0004 22.3765 55.3238 22.1963C54.6557 22.0076 53.979 21.9133 53.2938 21.9133C51.7607 21.9133 50.5701 22.4022 49.7222 23.3802C48.8743 24.3495 48.4503 25.7134 48.4503 27.472C48.4503 29.2305 48.8743 30.5988 49.7222 31.5768C50.5702 32.5461 51.7607 33.0308 53.2938 33.0308C53.979 33.0308 54.6557 32.9407 55.3238 32.7606C56.0004 32.5719 56.6728 32.2931 57.3408 31.9242V34.1117C56.6813 34.4205 55.9961 34.6521 55.2852 34.8065C54.5829 34.9609 53.8335 35.0381 53.0369 35.0381C50.87 35.0381 49.1485 34.3562 47.8723 32.9922C46.5961 31.6282 45.9579 29.7882 45.9579 27.472C45.9579 25.1216 46.6003 23.2729 47.8851 21.9261C49.1784 20.5793 50.9471 19.9059 53.1911 19.9059C53.9191 19.9059 54.63 19.9831 55.3238 20.1375C56.0175 20.2833 56.6899 20.5064 57.3408 20.8067Z" fill="#666666"/>
<path d="M67.0027 21.9136C65.735 21.9136 64.733 22.4112 63.9964 23.4062C63.2598 24.3927 62.8915 25.7481 62.8915 27.4724C62.8915 29.1966 63.2555 30.5562 63.9836 31.5514C64.7201 32.5379 65.7265 33.0311 67.0027 33.0311C68.2618 33.0311 69.2596 32.5336 69.9961 31.5385C70.7327 30.5435 71.101 29.1881 71.101 27.4724C71.101 25.7653 70.7327 24.4142 69.9961 23.4191C69.2595 22.4154 68.2618 21.9136 67.0027 21.9136ZM67.0027 19.9062C69.0583 19.9063 70.6728 20.5754 71.8462 21.9136C73.0197 23.2518 73.6063 25.1047 73.6063 27.4724C73.6063 29.8314 73.0196 31.6843 71.8462 33.0311C70.6728 34.3694 69.0583 35.0385 67.0027 35.0385C64.9385 35.0385 63.3198 34.3694 62.1463 33.0311C60.9814 31.6843 60.3991 29.8315 60.3991 27.4724C60.3991 25.1048 60.9815 23.2518 62.1463 21.9136C63.3198 20.5754 64.9385 19.9062 67.0027 19.9062Z" fill="#666666"/>
<path d="M88.7149 23.0193C89.3059 21.9556 90.0125 21.1707 90.8348 20.6646C91.657 20.1585 92.6248 19.9054 93.7383 19.9054C95.2372 19.9054 96.3934 20.433 97.2071 21.4881C98.0208 22.5346 98.4276 24.0273 98.4277 25.9659V34.6643H96.0509V26.0431C96.0509 24.662 95.8068 23.6369 95.3186 22.9678C94.8304 22.2987 94.0852 21.9642 93.0832 21.9642C91.8583 21.9642 90.8905 22.3716 90.1796 23.1866C89.4687 24.0015 89.1133 25.1125 89.1133 26.5193V34.6644H86.7366V26.0432C86.7365 24.6535 86.4924 23.6284 86.0043 22.9679C85.516 22.2988 84.7623 21.9642 83.7431 21.9642C82.5354 21.9642 81.5762 22.376 80.8653 23.1995C80.1544 24.0145 79.7989 25.1211 79.7989 26.5194V34.6644H77.4222V20.2529H79.7989V22.4918C80.3385 21.6083 80.9852 20.9563 81.7389 20.5359C82.4927 20.1156 83.3877 19.9055 84.4241 19.9054C85.469 19.9054 86.3555 20.1714 87.0836 20.7032C87.8201 21.2351 88.364 22.0071 88.7152 23.0193" fill="#666666"/>
<path d="M105.391 32.5026V40.1459H103.014V20.2532H105.391V22.4407C105.888 21.5829 106.513 20.9481 107.267 20.5363C108.029 20.1159 108.937 19.9058 109.99 19.9058C111.737 19.9058 113.155 20.6006 114.243 21.9903C115.339 23.38 115.887 25.2072 115.887 27.4719C115.887 29.7365 115.339 31.5638 114.243 32.9535C113.155 34.3432 111.737 35.038 109.99 35.038C108.937 35.038 108.029 34.8321 107.267 34.4204C106.513 34 105.888 33.361 105.391 32.5031M113.433 27.4719C113.433 25.7306 113.074 24.3666 112.354 23.38C111.643 22.3849 110.663 21.8874 109.412 21.8874C108.162 21.8874 107.177 22.385 106.457 23.38C105.746 24.3665 105.391 25.7304 105.391 27.4719C105.391 29.2133 105.746 30.5815 106.457 31.5767C107.177 32.5632 108.162 33.0564 109.412 33.0564C110.663 33.0564 111.643 32.5632 112.354 31.5767C113.074 30.5816 113.433 29.2134 113.433 27.4719Z" fill="#666666"/>
<path d="M126.345 27.4201C124.435 27.4201 123.112 27.6389 122.375 28.0764C121.639 28.5139 121.27 29.2602 121.27 30.3153C121.27 31.156 121.544 31.8251 122.093 32.3227C122.649 32.8116 123.403 33.0561 124.354 33.0561C125.664 33.0561 126.713 32.5929 127.501 31.6664C128.298 30.7314 128.696 29.4918 128.696 27.9477V27.4202L126.345 27.4201ZM131.06 26.4422V34.6645H128.696V32.477C128.157 33.352 127.484 33.9997 126.679 34.42C125.874 34.8318 124.889 35.0377 123.724 35.0377C122.251 35.0377 121.078 34.6259 120.204 33.8024C119.339 32.9703 118.906 31.8593 118.906 30.4697C118.906 28.8484 119.446 27.6259 120.525 26.8024C121.613 25.9789 123.232 25.5671 125.382 25.5671H128.696V25.3355C128.696 24.2461 128.337 23.4054 127.617 22.8136C126.906 22.2131 125.904 21.9129 124.611 21.9128C123.789 21.9129 122.988 22.0115 122.208 22.2088C121.429 22.4061 120.68 22.7021 119.96 23.0966V20.9092C120.825 20.5746 121.664 20.3259 122.478 20.1629C123.292 19.9913 124.084 19.9055 124.855 19.9055C126.936 19.9055 128.491 20.446 129.518 21.5268C130.546 22.6077 131.06 24.2462 131.06 26.4422Z" fill="#666666"/>
<path d="M147.954 25.9667V34.6651H145.59V26.0439C145.59 24.6799 145.325 23.6591 144.794 22.9815C144.263 22.3038 143.466 21.9649 142.404 21.9649C141.128 21.9649 140.122 22.3724 139.385 23.1874C138.649 24.0023 138.28 25.1132 138.28 26.5201V34.6651H135.904V20.2536H138.28V22.4925C138.846 21.6261 139.509 20.9785 140.272 20.5495C141.042 20.1206 141.929 19.9061 142.931 19.9061C144.584 19.9061 145.835 20.4208 146.683 21.4502C147.53 22.471 147.954 23.9766 147.954 25.9667" fill="#666666"/>
<path d="M158.682 36.0028C158.014 37.7185 157.363 38.838 156.729 39.3613C156.095 39.8846 155.247 40.1462 154.185 40.1462H152.297V38.1646H153.684C154.335 38.1646 154.841 38.0102 155.2 37.7014C155.56 37.3925 155.958 36.6634 156.395 35.5139L156.819 34.433L150.999 20.2533H153.504L158.001 31.5252L162.498 20.2533H165.003L158.682 36.0035" fill="#666666"/>
<path d="M50.692 11.8461C50.692 11.0724 50.5317 10.4728 50.2111 10.0473C49.8944 9.62183 49.4483 9.40908 48.8729 9.40908C48.3013 9.40908 47.8552 9.62184 47.5347 10.0473C47.218 10.4728 47.0596 11.0724 47.0596 11.8461C47.0596 12.6158 47.2179 13.2135 47.5347 13.639C47.8552 14.0645 48.3013 14.2772 48.8729 14.2772C49.4484 14.2772 49.8945 14.0645 50.2111 13.639C50.5317 13.2135 50.692 12.6158 50.692 11.8461ZM51.758 14.3643C51.758 15.4706 51.5127 16.2926 51.0222 16.8303C50.5317 17.3718 49.7805 17.6426 48.7686 17.6426C48.3939 17.6426 48.0405 17.6136 47.7084 17.5556C47.3762 17.5014 47.0537 17.4163 46.7409 17.3003V16.2617C47.0537 16.4319 47.3627 16.5576 47.6678 16.6388C47.973 16.72 48.2839 16.7607 48.6006 16.7607C49.2997 16.7607 49.823 16.5769 50.1706 16.2094C50.5182 15.8458 50.692 15.2946 50.692 14.5557V14.0277C50.4719 14.4107 50.1899 14.6969 49.8462 14.8865C49.5024 15.076 49.0911 15.1708 48.6122 15.1708C47.8166 15.1708 47.1755 14.8671 46.6888 14.2598C46.2021 13.6525 45.9588 12.8479 45.9588 11.846C45.9588 10.8402 46.2021 10.0337 46.6888 9.42635C47.1754 8.81904 47.8166 8.51538 48.6122 8.51538C49.0911 8.51539 49.5025 8.61016 49.8462 8.79969C50.1899 8.98924 50.4719 9.27549 50.692 9.65845V8.67205H51.758L51.758 14.3643Z" fill="#666666"/>
<path d="M59.5033 11.6548V12.177H54.6021C54.6484 12.912 54.8686 13.4728 55.2625 13.8597C55.6603 14.2427 56.2126 14.4342 56.9195 14.4342C57.3289 14.4342 57.7247 14.3839 58.1071 14.2833C58.4934 14.1827 58.8757 14.0319 59.2542 13.8307V14.8403C58.8719 15.0028 58.4799 15.1266 58.0781 15.2117C57.6765 15.2968 57.269 15.3393 56.8557 15.3393C55.8206 15.3393 54.9999 15.0376 54.3936 14.4342C53.7911 13.8307 53.4898 13.0146 53.4898 11.9856C53.4898 10.9218 53.7756 10.0785 54.3472 9.45573C54.9227 8.82908 55.697 8.51575 56.6704 8.51575C57.5433 8.51575 58.2327 8.79814 58.7386 9.36289C59.2484 9.9238 59.5032 10.6878 59.5033 11.6548ZM58.4374 11.3415C58.4296 10.7574 58.2655 10.2912 57.9449 9.94307C57.6282 9.59493 57.2072 9.42087 56.6819 9.42086C56.0871 9.42086 55.6101 9.58913 55.251 9.92567C54.8957 10.2622 54.691 10.7361 54.6369 11.3472L58.4374 11.3415Z" fill="#666666"/>
<path d="M66.6237 11.248V15.1704H65.5578V11.2829C65.5578 10.6678 65.438 10.2075 65.1986 9.90189C64.9591 9.5963 64.5999 9.44351 64.121 9.4435C63.5455 9.4435 63.0917 9.62724 62.7595 9.99472C62.4274 10.3622 62.2613 10.8631 62.2613 11.4975V15.1704H61.1895V8.67179H62.2613V9.68141C62.5162 9.29072 62.8155 8.99867 63.1593 8.80526C63.5069 8.61185 63.9066 8.51515 64.3585 8.51514C65.1039 8.51514 65.6678 8.74723 66.0502 9.21142C66.4325 9.67175 66.6237 10.3505 66.6237 11.248Z" fill="#666666"/>
<path d="M74.3113 11.6548V12.177H69.4102C69.4565 12.912 69.6767 13.4728 70.0706 13.8597C70.4684 14.2427 71.0207 14.4342 71.7276 14.4342C72.137 14.4342 72.5329 14.3839 72.9153 14.2833C73.3015 14.1827 73.6838 14.0319 74.0623 13.8307V14.8403C73.68 15.0028 73.288 15.1266 72.8862 15.2117C72.4846 15.2968 72.0771 15.3393 71.6638 15.3393C70.6288 15.3393 69.808 15.0376 69.2017 14.4342C68.5992 13.8307 68.2979 13.0146 68.2979 11.9856C68.2979 10.9218 68.5837 10.0785 69.1553 9.45573C69.7308 8.82908 70.5052 8.51575 71.4785 8.51575C72.3514 8.51575 73.0408 8.79814 73.5467 9.36289C74.0565 9.9238 74.3115 10.6878 74.3115 11.6548M73.2455 11.3415C73.2378 10.7574 73.0736 10.2912 72.753 9.94307C72.4363 9.59493 72.0153 9.42087 71.4901 9.42086C70.8954 9.42086 70.4184 9.58913 70.0592 9.92567C69.7039 10.2622 69.4992 10.7361 69.4451 11.3472L73.2456 11.3414" fill="#666666"/>
<path d="M79.7978 9.67008C79.6781 9.60046 79.5468 9.55016 79.4039 9.51922C79.2649 9.48441 79.1104 9.467 78.9404 9.467C78.3379 9.467 77.8744 9.66429 77.55 10.0588C77.2294 10.4495 77.0691 11.0124 77.0691 11.7473V15.1708H75.9974V8.67216H77.0691V9.68178C77.2931 9.28722 77.5848 8.99517 77.944 8.80562C78.3031 8.61221 78.7396 8.51551 79.2533 8.5155C79.3266 8.51551 79.4077 8.52131 79.4966 8.53291C79.5854 8.54065 79.6839 8.55419 79.7921 8.57353L79.7978 9.67008Z" fill="#666666"/>
<path d="M80.9273 8.67218H81.9933V15.1708H80.9273V8.67218ZM80.9273 6.14233H81.9933V7.49424H80.9273V6.14233Z" fill="#666666"/>
<path d="M88.888 8.92158V9.91958C88.5868 9.75325 88.2836 9.62947 87.9785 9.54823C87.6772 9.46313 87.3721 9.42058 87.0631 9.42057C86.3717 9.42057 85.8349 9.64107 85.4526 10.082C85.0702 10.5192 84.879 11.1342 84.879 11.9272C84.879 12.7202 85.0702 13.3372 85.4526 13.7782C85.8349 14.2153 86.3718 14.4339 87.0631 14.4339C87.3721 14.4339 87.6772 14.3933 87.9785 14.3121C88.2836 14.227 88.5868 14.1012 88.888 13.9349V14.9213C88.5906 15.0606 88.2816 15.165 87.9611 15.2346C87.6444 15.3043 87.3064 15.3391 86.9472 15.3391C85.9701 15.3391 85.1938 15.0315 84.6183 14.4165C84.0428 13.8014 83.7551 12.9718 83.7551 11.9272C83.7551 10.8673 84.0447 10.0337 84.6241 9.42635C85.2073 8.81904 86.0048 8.51538 87.0168 8.51538C87.3451 8.51539 87.6657 8.5502 87.9785 8.61982C88.2913 8.68559 88.5945 8.7862 88.888 8.92158Z" fill="#666666"/>
<path d="M94.5076 6.14233H95.5735V15.1708H94.5076V6.14233Z" fill="#666666"/>
<path d="M100.312 9.4207C99.7407 9.4207 99.2889 9.64507 98.9568 10.0938C98.6246 10.5386 98.4585 11.1498 98.4585 11.9274C98.4585 12.7049 98.6227 13.318 98.951 13.7668C99.2831 14.2116 99.7369 14.4341 100.312 14.4341C100.88 14.4341 101.33 14.2097 101.662 13.761C101.994 13.3123 102.161 12.7011 102.161 11.9274C102.161 11.1576 101.994 10.5483 101.662 10.0997C101.33 9.64709 100.88 9.4208 100.312 9.4208M100.312 8.51562C101.239 8.51563 101.967 8.81736 102.497 9.4208C103.026 10.0243 103.29 10.8598 103.29 11.9275C103.29 12.9912 103.026 13.8268 102.497 14.4341C101.967 15.0376 101.239 15.3393 100.312 15.3393C99.3817 15.3393 98.6517 15.0376 98.1226 14.4341C97.5973 13.8268 97.3347 12.9912 97.3347 11.9275C97.3347 10.8598 97.5974 10.0243 98.1226 9.4208C98.6517 8.81736 99.3817 8.51564 100.312 8.51562Z" fill="#666666"/>
<path d="M109.321 11.8461C109.321 11.0724 109.161 10.4728 108.841 10.0473C108.524 9.62183 108.078 9.40908 107.502 9.40908C106.931 9.40908 106.485 9.62184 106.164 10.0473C105.847 10.4728 105.689 11.0724 105.689 11.8461C105.689 12.6158 105.847 13.2135 106.164 13.639C106.485 14.0645 106.931 14.2772 107.502 14.2772C108.078 14.2772 108.524 14.0645 108.841 13.639C109.161 13.2135 109.321 12.6158 109.321 11.8461ZM110.387 14.3643C110.387 15.4706 110.142 16.2926 109.652 16.8303C109.161 17.3718 108.41 17.6426 107.398 17.6426C107.023 17.6426 106.67 17.6136 106.338 17.5556C106.006 17.5014 105.683 17.4163 105.37 17.3003V16.2617C105.683 16.4319 105.992 16.5576 106.297 16.6388C106.602 16.72 106.913 16.7607 107.23 16.7607C107.929 16.7607 108.452 16.5769 108.8 16.2094C109.148 15.8458 109.322 15.2946 109.322 14.5557V14.0277C109.101 14.4107 108.819 14.6969 108.476 14.8865C108.132 15.076 107.721 15.1708 107.242 15.1708C106.446 15.1708 105.805 14.8671 105.318 14.2598C104.832 13.6525 104.588 12.8479 104.588 11.846C104.588 10.8402 104.832 10.0337 105.318 9.42635C105.805 8.81904 106.446 8.51538 107.242 8.51538C107.721 8.51539 108.132 8.61016 108.476 8.79969C108.819 8.98924 109.101 9.27549 109.322 9.65845V8.67205H110.388L110.387 14.3643Z" fill="#666666"/>
<path d="M115.098 9.4207C114.527 9.4207 114.075 9.64507 113.743 10.0938C113.411 10.5386 113.245 11.1498 113.245 11.9274C113.245 12.7049 113.409 13.318 113.737 13.7668C114.069 14.2116 114.523 14.4341 115.099 14.4341C115.666 14.4341 116.116 14.2097 116.448 13.761C116.78 13.3123 116.947 12.7011 116.947 11.9274C116.947 11.1576 116.78 10.5483 116.448 10.0997C116.116 9.64709 115.666 9.4208 115.099 9.4208M115.099 8.51562C116.025 8.51563 116.754 8.81736 117.283 9.4208C117.812 10.0243 118.076 10.8598 118.076 11.9275C118.076 12.9912 117.812 13.8268 117.283 14.4341C116.753 15.0376 116.025 15.3393 115.099 15.3393C114.168 15.3393 113.438 15.0376 112.909 14.4341C112.383 13.8268 112.121 12.9912 112.121 11.9275C112.121 10.8598 112.383 10.0243 112.909 9.4208C113.438 8.81736 114.168 8.51564 115.099 8.51562Z" fill="#666666"/>
<path d="M34.9439 6.0019C42.9373 14.0077 42.9373 26.9874 34.9439 34.9932C26.9505 42.9991 13.9909 42.9991 5.99753 34.9932C-1.99588 26.9874 -1.99589 14.0077 5.99753 6.00189C13.9909 -2.00394 26.9505 -2.00394 34.9439 6.0019Z" fill="url(#paint0_linear_104_12)"/>
<path d="M35.0443 17.4438C39.9112 22.3183 39.9112 30.2212 35.0443 35.0958C30.1773 39.9703 22.2867 39.9703 17.4197 35.0958C12.5528 30.2212 12.5528 22.3183 17.4197 17.4438C22.2867 12.5693 30.1773 12.5693 35.0443 17.4438Z" fill="#EEEEEE"/>
</g>
<defs>
<linearGradient id="paint0_linear_104_12" x1="6.81425" y1="6.58642" x2="34.9879" y2="34.9495" gradientUnits="userSpaceOnUse">
<stop stop-color="#2294FE"/>
<stop offset="1" stop-color="#014F96"/>
</linearGradient>
<clipPath id="clip0_104_12">
<rect width="165" height="41" fill="white"/>
</clipPath>
</defs>
</svg>
